<?xml version="1.0" standalone="no"?>
<!DOCTYPE svg PUBLIC "-//W3C//DTD SVG 20010904//EN"
 "http://www.w3.org/TR/2001/REC-SVG-20010904/DTD/svg10.dtd">
<svg version="1.0" xmlns="http://www.w3.org/2000/svg"
 width="160.000000pt" height="160.000000pt" viewBox="0 0 160.000000 160.000000"
 preserveAspectRatio="xMidYMid meet">
<metadata>
Created by potrace 1.11, written by Peter Selinger 2001-2013
</metadata>
<g transform="translate(0.000000,160.000000) scale(0.100000,-0.100000)"
fill="#000000" stroke="none">
<path d="M278 1388 c-3 -7 -4 -41 -3 -75 l1 -63 -38 0 -38 0 0 -75 0 -75 -75
0 -75 0 0 -225 c0 -235 -1 -230 44 -225 13 1 16 -2 10 -12 -6 -11 -5 -11 8 0
13 10 15 9 15 -10 1 -59 -1 -58 66 -57 34 1 67 1 72 0 6 0 10 -30 9 -68 0 -78
4 -102 17 -82 6 10 11 10 22 1 7 -7 17 -9 20 -5 4 3 23 7 42 8 38 2 51 -11 50
-50 0 -18 -8 -21 -75 -25 l-74 -5 -1 -107 c-1 -66 3 -109 10 -111 5 -2 31 -3
57 -2 29 2 45 -1 42 -7 -4 -6 0 -7 12 -1 11 5 38 9 62 8 l42 -2 1 71 c1 39 1
73 1 76 0 3 50 5 111 5 l112 0 1 60 c3 101 1 96 30 85 16 -7 23 -7 19 0 -8 12
-3 13 28 1 14 -6 28 -7 31 -3 17 17 36 9 37 -16 1 -15 2 -49 3 -77 l1 -50 57
0 c33 1 54 -3 51 -9 -4 -5 -1 -6 7 -1 12 7 39 9 95 6 12 -1 15 -16 15 -76 0
-62 2 -73 15 -69 9 4 15 0 15 -7 0 -9 3 -10 8 -4 11 15 74 17 65 2 -5 -9 -3
-9 8 -1 8 6 35 10 61 9 26 0 49 4 51 9 2 6 3 56 2 111 l0 100 -73 3 c-39 2
-72 6 -73 10 0 4 -2 17 -5 30 -5 28 29 44 64 31 14 -6 21 -5 17 0 -7 13 48 9
57 -4 8 -11 9 -5 13 85 1 33 3 63 4 68 0 4 31 7 69 6 37 0 70 4 73 9 4 5 5 23
2 38 -2 17 0 29 6 29 6 0 11 -6 11 -12 0 -10 2 -10 9 0 4 7 12 12 17 11 33 -6
34 0 34 226 l0 225 -76 0 -76 0 2 28 c1 15 2 48 1 75 l-1 47 -38 0 -38 0 1 73
0 72 -112 3 -113 3 0 -39 0 -38 -102 -1 c-57 -1 -108 -2 -115 -2 -7 -1 -11
-21 -11 -53 0 -103 6 -95 -69 -94 -38 0 -70 4 -73 7 -3 4 -5 36 -4 71 1 35 -2
65 -6 68 -5 3 -56 5 -114 4 l-106 -1 0 39 0 38 -109 0 c-78 0 -110 -4 -113
-12z"/>
</g>
</svg>
